# xmcd
#
# Track frame offsets: 
#        183
#        82650
#        95108
#        136488
#        150858
#
# Disc length: 2479 seconds
#
# Revision: 1
# Processed by: cddbd v1.5.2PL0 Copyright (c) Steve Scherf et al.
# Submitted via: ExactAudioCopy v0.99pb4
#
DISCID=2e09ad05
DTITLE=Dannie Richmond Quartet - Ode To Mingus
DYEAR=1979
DGENRE=Jazz
TTITLE0=Ode To Mingus
TTITLE1=Olduvai Gorge
TTITLE2=Love Bird
TTITLE3=If You Could See Me Now
TTITLE4=Drum Some, Some Drum
EXTD=YEAR: 1979
EXTT0=
EXTT1=
EXTT2=
EXTT3=
EXTT4=
PLAYORDER=
